<svg xmlns="http://www.w3.org/2000/svg" xmlns:xlink="http://www.w3.org/1999/xlink" width="500" zoomAndPan="magnify" viewBox="0 0 375 374.999991" height="500" preserveAspectRatio="xMidYMid meet" version="1.0"><defs><g/><clipPath id="ecffd6acd8"><path d="M 116 114.910156 L 157 114.910156 L 157 166 L 116 166 Z M 116 114.910156 " clip-rule="nonzero"/></clipPath><clipPath id="fe800e7922"><path d="M 63.691406 143 L 206.941406 143 L 206.941406 260.410156 L 63.691406 260.410156 Z M 63.691406 143 " clip-rule="nonzero"/></clipPath><clipPath id="d50e9348c2"><path d="M 80 0.839844 L 104 0.839844 L 104 31 L 80 31 Z M 80 0.839844 " clip-rule="nonzero"/></clipPath><clipPath id="5f8bf4344d"><path d="M 107 0.839844 L 129 0.839844 L 129 31 L 107 31 Z M 107 0.839844 " clip-rule="nonzero"/></clipPath><clipPath id="76e2615a14"><path d="M 133 0.839844 L 155 0.839844 L 155 31 L 133 31 Z M 133 0.839844 " clip-rule="nonzero"/></clipPath><clipPath id="12a55b6429"><rect x="0" width="186" y="0" height="41"/></clipPath><clipPath id="179120c262"><path d="M 1 0.238281 L 14 0.238281 L 14 13 L 1 13 Z M 1 0.238281 " clip-rule="nonzero"/></clipPath><clipPath id="cffe4724f0"><path d="M 19 0.238281 L 27 0.238281 L 27 13 L 19 13 Z M 19 0.238281 " clip-rule="nonzero"/></clipPath><clipPath id="30030b9be4"><path d="M 32 0.238281 L 39 0.238281 L 39 13 L 32 13 Z M 32 0.238281 " clip-rule="nonzero"/></clipPath><clipPath id="b1917fa4ea"><path d="M 45 0.238281 L 47 0.238281 L 47 13 L 45 13 Z M 45 0.238281 " clip-rule="nonzero"/></clipPath><clipPath id="a5a2aff6fc"><path d="M 52 0.238281 L 65 0.238281 L 65 13 L 52 13 Z M 52 0.238281 " clip-rule="nonzero"/></clipPath><clipPath id="e572f8b87a"><path d="M 70 0.238281 L 72 0.238281 L 72 13 L 70 13 Z M 70 0.238281 " clip-rule="nonzero"/></clipPath><clipPath id="24c985ac32"><path d="M 77 0.238281 L 89 0.238281 L 89 13 L 77 13 Z M 77 0.238281 " clip-rule="nonzero"/></clipPath><clipPath id="bbd912e98c"><path d="M 94 0.238281 L 101 0.238281 L 101 13 L 94 13 Z M 94 0.238281 " clip-rule="nonzero"/></clipPath><clipPath id="cf6d99d9f1"><rect x="0" width="107" y="0" height="16"/></clipPath></defs><path fill="#efb810" d="M 167.566406 233.023438 L 162.195312 233.246094 C 160.402344 233.339844 158.613281 233.445312 156.824219 233.566406 L 151.457031 233.984375 L 146.09375 234.472656 L 140.738281 235.078125 L 135.394531 235.765625 L 130.058594 236.527344 C 128.28125 236.800781 126.507812 237.078125 124.734375 237.378906 L 119.425781 238.335938 L 114.128906 239.363281 L 108.84375 240.464844 L 103.578125 241.652344 L 98.332031 242.933594 L 97.894531 243.046875 L 98.210938 241.449219 L 99.375 235.0625 L 100.425781 228.660156 L 101.382812 222.238281 L 102.226562 215.800781 L 102.976562 209.355469 L 103.621094 202.894531 L 104.152344 196.425781 L 104.597656 189.949219 L 104.921875 183.464844 L 105.15625 176.980469 L 105.261719 170.492188 L 105.265625 164 L 105.179688 157.515625 L 105.003906 151.03125 C 104.960938 149.929688 104.910156 148.832031 104.855469 147.730469 L 118.757812 149.3125 L 135.960938 151.113281 L 144.566406 151.941406 L 153.179688 152.75 L 161.800781 153.488281 C 164.679688 153.707031 167.554688 153.949219 170.4375 154.140625 C 167.609375 153.539062 164.777344 152.992188 161.949219 152.417969 L 153.453125 150.785156 L 144.945312 149.214844 L 136.433594 147.671875 L 119.394531 144.722656 L 102.332031 141.929688 L 99.207031 141.417969 L 99.222656 144.730469 C 99.230469 146.867188 99.21875 149.003906 99.253906 151.136719 L 99.238281 157.542969 L 99.136719 163.945312 L 98.941406 170.34375 L 98.671875 176.738281 L 98.351562 183.128906 L 97.9375 189.515625 L 97.46875 195.894531 L 96.910156 202.269531 L 96.285156 208.636719 L 95.582031 214.992188 L 94.796875 221.34375 L 93.949219 227.6875 L 93.015625 234.015625 L 92.019531 240.339844 L 90.9375 246.648438 L 90.09375 251.566406 L 94.789062 250.171875 L 99.886719 248.660156 L 105.007812 247.21875 L 110.144531 245.820312 L 115.296875 244.480469 L 120.46875 243.210938 L 125.660156 242.007812 C 127.398438 241.640625 129.132812 241.25 130.863281 240.851562 L 136.078125 239.746094 L 141.3125 238.707031 L 146.5625 237.734375 L 151.820312 236.789062 L 157.097656 235.914062 C 158.859375 235.652344 160.621094 235.378906 162.382812 235.089844 L 167.679688 234.3125 L 172.992188 233.578125 L 178.316406 232.882812 C 174.734375 232.871094 171.148438 232.90625 167.566406 233.023438 Z M 167.566406 233.023438 " fill-opacity="1" fill-rule="nonzero"/><path fill="#efb810" d="M 107.339844 179.371094 C 107.304688 181.046875 107.253906 182.722656 107.179688 184.394531 C 107.113281 186.070312 107.0625 187.742188 106.964844 189.417969 L 106.6875 194.433594 L 106.332031 199.445312 C 106.226562 201.117188 106.066406 202.78125 105.933594 204.449219 C 105.808594 206.121094 105.660156 207.785156 105.46875 209.449219 C 105.28125 211.109375 105.128906 212.777344 104.917969 214.4375 L 104.25 219.40625 C 104.042969 221.066406 103.714844 222.703125 103.453125 224.351562 L 103.035156 226.820312 L 102.523438 229.269531 C 102.152344 230.894531 101.910156 232.550781 101.472656 234.15625 L 100.238281 238.996094 L 99.882812 240.398438 L 101.246094 239.992188 C 106.140625 238.53125 111.125 237.246094 116.117188 236.070312 C 117.363281 235.765625 118.621094 235.507812 119.871094 235.222656 L 123.632812 234.402344 C 124.886719 234.132812 126.140625 233.859375 127.402344 233.621094 C 128.660156 233.378906 129.917969 233.113281 131.179688 232.886719 L 134.972656 232.214844 C 136.234375 231.992188 137.507812 231.820312 138.773438 231.617188 C 140.042969 231.414062 141.3125 231.230469 142.585938 231.082031 L 146.40625 230.585938 L 150.238281 230.179688 C 151.515625 230.023438 152.796875 229.976562 154.078125 229.875 C 155.359375 229.785156 156.640625 229.679688 157.925781 229.65625 L 161.78125 229.515625 L 157.921875 229.433594 C 156.632812 229.382812 155.34375 229.449219 154.058594 229.476562 C 152.769531 229.523438 151.476562 229.519531 150.195312 229.621094 L 146.332031 229.859375 C 145.050781 229.957031 143.765625 230.082031 142.480469 230.214844 C 141.199219 230.332031 139.917969 230.480469 138.640625 230.652344 C 137.363281 230.820312 136.078125 230.960938 134.804688 231.15625 L 130.980469 231.730469 C 129.707031 231.921875 128.4375 232.15625 127.164062 232.367188 C 125.890625 232.574219 124.625 232.8125 123.359375 233.054688 C 122.089844 233.289062 120.824219 233.53125 119.566406 233.8125 C 118.304688 234.085938 117.039062 234.339844 115.785156 234.636719 C 111.214844 235.671875 106.675781 236.796875 102.148438 238.070312 L 103.082031 234.546875 C 103.3125 233.730469 103.488281 232.90625 103.65625 232.078125 L 104.171875 229.601562 L 104.667969 227.121094 L 105.066406 224.625 C 105.320312 222.957031 105.636719 221.300781 105.832031 219.628906 L 106.460938 214.617188 C 106.660156 212.945312 106.796875 211.269531 106.96875 209.59375 C 107.144531 207.921875 107.28125 206.246094 107.398438 204.566406 C 107.507812 202.890625 107.667969 201.214844 107.742188 199.535156 L 107.96875 194.496094 L 108.117188 189.457031 C 108.175781 187.78125 108.179688 186.097656 108.203125 184.417969 C 108.230469 182.738281 108.238281 181.058594 108.230469 179.378906 C 108.238281 177.699219 108.21875 176.023438 108.175781 174.34375 C 108.144531 172.664062 108.101562 170.984375 108.042969 169.304688 C 107.945312 165.949219 107.796875 162.597656 107.554688 159.25 C 107.585938 162.605469 107.582031 165.957031 107.550781 169.3125 C 107.523438 172.671875 107.429688 176.023438 107.339844 179.371094 Z M 107.339844 179.371094 " fill-opacity="1" fill-rule="nonzero"/><path fill="#efb810" d="M 92.238281 168.050781 L 90.59375 174.71875 C 90.027344 176.941406 89.511719 179.167969 88.972656 181.394531 L 87.351562 188.0625 C 86.796875 190.28125 86.300781 192.515625 85.757812 194.734375 L 82.535156 208.066406 L 80.902344 214.722656 L 79.230469 221.363281 C 78.125 225.792969 76.921875 230.1875 75.703125 234.570312 C 75.074219 236.753906 74.417969 238.929688 73.699219 241.070312 C 73 243.21875 72.234375 245.335938 71.308594 247.332031 L 70.441406 249.214844 L 72.390625 249.015625 C 73.097656 248.941406 73.867188 248.90625 74.613281 248.875 C 75.367188 248.835938 76.121094 248.816406 76.875 248.824219 C 77.628906 248.820312 78.386719 248.84375 79.140625 248.882812 C 79.894531 248.917969 80.644531 248.984375 81.398438 249.066406 C 81.777344 249.09375 82.144531 249.160156 82.523438 249.203125 C 82.898438 249.25 83.273438 249.300781 83.644531 249.378906 C 84.390625 249.5 85.125 249.679688 85.859375 249.867188 C 86.230469 249.957031 86.582031 250.089844 86.949219 250.195312 C 87.316406 250.296875 87.671875 250.429688 88.023438 250.582031 C 88.367188 250.734375 88.746094 250.84375 89.070312 251.039062 L 90.089844 251.582031 L 89.164062 250.882812 C 88.863281 250.632812 88.511719 250.464844 88.183594 250.25 C 87.851562 250.042969 87.511719 249.847656 87.15625 249.6875 C 86.804688 249.519531 86.457031 249.324219 86.09375 249.183594 C 85.371094 248.894531 84.636719 248.609375 83.886719 248.382812 C 83.515625 248.253906 83.136719 248.148438 82.757812 248.050781 C 82.378906 247.957031 82 247.835938 81.617188 247.757812 C 80.089844 247.402344 78.535156 247.171875 76.976562 246.996094 C 76.195312 246.902344 75.410156 246.839844 74.628906 246.792969 C 74.488281 246.785156 74.347656 246.78125 74.210938 246.773438 C 75.007812 245.226562 75.71875 243.65625 76.386719 242.074219 C 77.265625 239.921875 78.066406 237.75 78.84375 235.574219 C 79.601562 233.394531 80.351562 231.207031 81.019531 229.003906 C 81.699219 226.804688 82.367188 224.597656 83.003906 222.390625 C 83.664062 220.183594 84.265625 217.964844 84.851562 215.742188 L 86.574219 209.070312 C 87.734375 204.625 88.734375 200.140625 89.753906 195.664062 C 90.253906 193.425781 90.773438 191.191406 91.230469 188.941406 L 92.609375 182.199219 C 93.0625 179.949219 93.527344 177.703125 93.929688 175.445312 L 95.167969 168.675781 C 95.589844 166.421875 95.9375 164.148438 96.320312 161.886719 C 96.691406 159.625 97.066406 157.359375 97.394531 155.089844 C 98.078125 150.550781 98.703125 146 99.203125 141.429688 C 97.953125 145.855469 96.765625 150.289062 95.617188 154.726562 C 95.027344 156.941406 94.472656 159.164062 93.910156 161.386719 C 93.359375 163.609375 92.769531 165.820312 92.238281 168.050781 Z M 92.238281 168.050781 " fill-opacity="1" fill-rule="nonzero"/><g clip-path="url(#ecffd6acd8)"><path fill="#efb810" d="M 116.140625 159.839844 C 116.140625 161.4375 117.4375 162.734375 119.035156 162.734375 C 120.632812 162.734375 121.925781 161.4375 121.925781 159.839844 C 121.925781 158.242188 120.632812 156.945312 119.035156 156.945312 C 118.882812 156.945312 118.738281 156.96875 118.589844 156.992188 C 118.542969 156.277344 118.53125 155.488281 118.496094 154.640625 C 118.5 153.753906 118.488281 152.804688 118.515625 151.789062 C 118.605469 149.761719 118.8125 147.488281 119.199219 145.046875 C 119.628906 142.605469 120.261719 140.003906 121.136719 137.332031 C 122.019531 134.667969 123.210938 131.945312 124.667969 129.285156 C 125.042969 128.640625 125.421875 127.992188 125.804688 127.339844 C 126.234375 126.683594 126.667969 126.019531 127.101562 125.355469 C 127.980469 124.101562 128.933594 122.898438 129.996094 121.886719 C 131.050781 120.863281 132.230469 120.0625 133.453125 119.59375 C 133.605469 119.546875 133.769531 119.476562 133.90625 119.4375 C 134.035156 119.40625 134.167969 119.371094 134.296875 119.332031 L 134.90625 119.21875 L 134.980469 119.207031 L 135.089844 119.203125 L 135.328125 119.183594 C 135.964844 119.132812 136.609375 119.171875 137.257812 119.320312 C 139.871094 119.84375 142.417969 121.8125 144.445312 124.03125 C 146.511719 126.390625 148.25 128.964844 149.605469 131.652344 C 150.949219 134.339844 152 137.101562 152.628906 139.824219 C 152.828125 140.492188 152.921875 141.175781 153.058594 141.839844 C 153.1875 142.507812 153.3125 143.167969 153.386719 143.824219 C 153.46875 144.476562 153.570312 145.121094 153.636719 145.753906 C 153.675781 146.394531 153.714844 147.019531 153.753906 147.632812 C 153.8125 148.246094 153.785156 148.847656 153.785156 149.4375 C 153.769531 150.027344 153.792969 150.609375 153.761719 151.171875 C 153.664062 152.289062 153.667969 153.371094 153.492188 154.367188 C 153.355469 155.367188 153.234375 156.308594 153.039062 157.164062 C 152.859375 158.023438 152.726562 158.832031 152.503906 159.519531 C 152.503906 159.527344 152.5 159.535156 152.5 159.542969 C 152.203125 159.441406 151.890625 159.375 151.558594 159.375 C 149.960938 159.375 148.667969 160.667969 148.667969 162.269531 C 148.667969 163.867188 149.960938 165.160156 151.558594 165.160156 C 153.15625 165.160156 154.453125 163.867188 154.453125 162.269531 C 154.453125 161.296875 153.972656 160.441406 153.238281 159.917969 C 153.257812 159.878906 153.273438 159.84375 153.292969 159.808594 C 153.632812 159.125 153.890625 158.339844 154.210938 157.488281 C 154.5625 156.640625 154.792969 155.6875 155.070312 154.667969 C 155.382812 153.65625 155.53125 152.542969 155.777344 151.378906 C 155.894531 150.792969 155.929688 150.183594 156.007812 149.5625 C 156.070312 148.941406 156.164062 148.304688 156.167969 147.648438 C 156.355469 145.035156 156.195312 142.175781 155.707031 139.191406 C 155.238281 136.207031 154.347656 133.097656 152.984375 130.058594 C 151.640625 127.011719 149.800781 124.039062 147.53125 121.34375 C 146.328125 119.96875 145.03125 118.691406 143.46875 117.609375 C 141.925781 116.527344 140.136719 115.605469 138.117188 115.1875 C 137.117188 114.96875 136.054688 114.90625 135.007812 114.996094 L 134.613281 115.03125 L 134.417969 115.050781 L 134.171875 115.089844 L 133.535156 115.210938 L 132.707031 115.433594 C 132.4375 115.511719 132.210938 115.605469 131.964844 115.691406 C 130.035156 116.4375 128.445312 117.65625 127.136719 118.964844 C 125.8125 120.277344 124.753906 121.714844 123.820312 123.167969 C 123.390625 123.886719 122.964844 124.597656 122.539062 125.304688 C 122.128906 126.042969 121.742188 126.8125 121.355469 127.554688 C 119.890625 130.523438 118.851562 133.539062 118.117188 136.453125 C 117.363281 139.359375 116.972656 142.175781 116.796875 144.773438 C 116.625 147.371094 116.71875 149.753906 116.902344 151.84375 C 117.019531 152.886719 117.132812 153.863281 117.28125 154.757812 C 117.457031 155.648438 117.597656 156.464844 117.765625 157.195312 C 117.769531 157.214844 117.773438 157.230469 117.777344 157.25 C 116.8125 157.714844 116.140625 158.695312 116.140625 159.839844 Z M 116.140625 159.839844 " fill-opacity="1" fill-rule="nonzero"/></g><g clip-path="url(#fe800e7922)"><path fill="#efb810" d="M 199.375 234.8125 C 196.902344 234.789062 194.425781 234.691406 191.953125 234.832031 L 184.53125 235.09375 L 182.675781 235.160156 C 182.058594 235.1875 181.441406 235.253906 180.824219 235.300781 L 177.125 235.597656 C 174.660156 235.820312 172.179688 235.945312 169.726562 236.269531 L 162.355469 237.21875 C 159.890625 237.488281 157.464844 237.988281 155.015625 238.375 C 152.574219 238.804688 150.121094 239.160156 147.703125 239.707031 L 140.425781 241.234375 L 133.207031 243.015625 C 130.800781 243.605469 128.433594 244.359375 126.046875 245.023438 C 123.652344 245.675781 121.308594 246.480469 118.941406 247.230469 C 116.574219 247.960938 114.246094 248.824219 111.90625 249.648438 C 109.558594 250.445312 107.265625 251.40625 104.945312 252.28125 C 102.652344 253.230469 100.34375 254.148438 98.085938 255.183594 C 95.972656 256.109375 93.902344 257.101562 91.824219 258.164062 C 91.480469 257.894531 91.136719 257.625 90.78125 257.378906 L 89.1875 256.453125 L 87.542969 255.6875 C 86.996094 255.4375 86.429688 255.25 85.871094 255.027344 C 85.316406 254.804688 84.75 254.625 84.183594 254.445312 C 83.617188 254.265625 83.050781 254.066406 82.480469 253.917969 L 80.761719 253.449219 L 79.035156 253.039062 C 77.882812 252.769531 76.730469 252.53125 75.574219 252.308594 C 74.414062 252.082031 73.253906 251.882812 72.089844 251.691406 C 70.136719 251.382812 68.183594 251.125 66.210938 250.910156 L 67.25 248.753906 L 68.019531 247.148438 L 68.675781 245.503906 C 69.523438 243.308594 70.464844 241.140625 71.1875 238.902344 C 71.9375 236.679688 72.769531 234.476562 73.453125 232.230469 L 75.554688 225.511719 L 77.519531 218.757812 C 78.195312 216.511719 78.769531 214.238281 79.386719 211.976562 C 80.625 207.453125 81.746094 202.90625 82.910156 198.363281 C 84.023438 193.8125 85.152344 189.265625 86.210938 184.703125 C 87.300781 180.144531 88.335938 175.578125 89.347656 171.003906 C 90.355469 166.425781 91.34375 161.847656 92.308594 157.265625 C 93.273438 152.683594 94.210938 148.09375 95.101562 143.496094 L 91.925781 157.183594 C 90.851562 161.738281 89.757812 166.292969 88.644531 170.84375 L 85.269531 184.476562 C 84.144531 189.019531 82.949219 193.546875 81.773438 198.078125 C 80.546875 202.59375 79.363281 207.125 78.0625 211.617188 C 77.410156 213.863281 76.808594 216.125 76.132812 218.363281 L 74.140625 225.089844 L 72.015625 231.769531 C 71.324219 234.003906 70.492188 236.179688 69.734375 238.386719 C 69.003906 240.609375 68.066406 242.734375 67.21875 244.902344 L 66.566406 246.519531 L 65.804688 248.078125 L 64.296875 251.191406 L 63.777344 252.257812 L 64.925781 252.378906 C 67.222656 252.617188 69.535156 252.9375 71.828125 253.3125 C 72.972656 253.503906 74.117188 253.707031 75.253906 253.933594 C 76.394531 254.15625 77.527344 254.398438 78.65625 254.664062 L 80.34375 255.078125 L 82.011719 255.539062 C 82.570312 255.683594 83.113281 255.871094 83.664062 256.042969 C 84.210938 256.214844 84.761719 256.382812 85.289062 256.597656 C 85.820312 256.804688 86.371094 256.980469 86.886719 257.214844 L 88.429688 257.921875 L 89.875 258.753906 C 90.324219 259.066406 90.738281 259.40625 91.175781 259.726562 L 91.65625 260.082031 L 92.117188 259.839844 C 94.269531 258.71875 96.496094 257.640625 98.738281 256.644531 C 100.972656 255.609375 103.257812 254.6875 105.527344 253.734375 C 107.828125 252.851562 110.097656 251.890625 112.429688 251.085938 C 114.75 250.253906 117.054688 249.386719 119.410156 248.648438 C 121.753906 247.894531 124.082031 247.082031 126.460938 246.421875 C 128.832031 245.753906 131.179688 244.988281 133.570312 244.394531 L 140.726562 242.523438 L 147.949219 240.902344 C 150.347656 240.320312 152.785156 239.929688 155.207031 239.46875 C 157.636719 239.046875 160.050781 238.515625 162.5 238.210938 L 169.832031 237.160156 C 171.050781 236.964844 172.277344 236.863281 173.507812 236.738281 L 177.191406 236.355469 L 180.875 235.96875 C 181.488281 235.910156 182.101562 235.832031 182.714844 235.785156 L 184.566406 235.679688 L 191.960938 235.242188 C 194.425781 235.042969 196.898438 235.09375 199.371094 235.039062 L 206.785156 234.929688 Z M 199.375 234.8125 " fill-opacity="1" fill-rule="nonzero"/></g><g transform="matrix(1, 0, 0, 1, 125, 177)"><g clip-path="url(#12a55b6429)"><g fill="#efb810" fill-opacity="1"><g transform="translate(0.283717, 30.398106)"><g><path d="M 2.046875 -29.171875 L 6.265625 -29.171875 L 6.265625 -15.140625 C 7.066406 -15.878906 7.785156 -16.550781 8.421875 -17.15625 C 9.066406 -17.757812 9.835938 -18.46875 10.734375 -19.28125 C 11.828125 -20.289062 12.832031 -21.320312 13.75 -22.375 C 14.675781 -23.425781 15.414062 -24.414062 15.96875 -25.34375 C 16.519531 -26.28125 16.796875 -27.082031 16.796875 -27.75 C 16.796875 -28.269531 16.664062 -28.609375 16.40625 -28.765625 C 16.144531 -28.921875 15.878906 -29.007812 15.609375 -29.03125 L 15.609375 -29.171875 L 22.84375 -29.171875 L 9.3125 -17.359375 C 9.519531 -17.429688 9.726562 -17.484375 9.9375 -17.515625 C 10.15625 -17.546875 10.363281 -17.5625 10.5625 -17.5625 C 11.082031 -17.5625 11.515625 -17.445312 11.859375 -17.21875 C 12.210938 -17 12.566406 -16.648438 12.921875 -16.171875 C 13.273438 -15.703125 13.691406 -15.085938 14.171875 -14.328125 C 15.085938 -12.941406 15.921875 -11.675781 16.671875 -10.53125 C 17.421875 -9.382812 18.140625 -8.269531 18.828125 -7.1875 C 19.515625 -6.113281 20.226562 -4.992188 20.96875 -3.828125 C 21.707031 -2.671875 22.515625 -1.394531 23.390625 0 L 18.375 0 C 17.5 -1.394531 16.695312 -2.671875 15.96875 -3.828125 C 15.238281 -4.992188 14.53125 -6.117188 13.84375 -7.203125 C 13.15625 -8.296875 12.4375 -9.414062 11.6875 -10.5625 C 10.9375 -11.707031 10.09375 -12.960938 9.15625 -14.328125 C 8.945312 -14.648438 8.753906 -14.910156 8.578125 -15.109375 C 8.398438 -15.304688 8.128906 -15.40625 7.765625 -15.40625 C 7.484375 -15.40625 7.226562 -15.34375 7 -15.21875 C 6.769531 -15.09375 6.523438 -14.921875 6.265625 -14.703125 L 6.265625 0 L 2.046875 0 Z M 2.046875 -29.171875 "/></g></g></g><g fill="#efb810" fill-opacity="1"><g transform="translate(26.915014, 30.398106)"><g><path d="M 0.578125 -29.171875 L 4.953125 -29.171875 C 5.734375 -27.460938 6.441406 -25.898438 7.078125 -24.484375 C 7.722656 -23.078125 8.351562 -21.710938 8.96875 -20.390625 C 9.582031 -19.066406 10.210938 -17.675781 10.859375 -16.21875 C 11.242188 -15.320312 11.5625 -14.625 11.8125 -14.125 C 12.0625 -13.632812 12.296875 -13.285156 12.515625 -13.078125 C 12.742188 -12.878906 13.003906 -12.78125 13.296875 -12.78125 C 13.472656 -12.78125 13.65625 -12.832031 13.84375 -12.9375 C 14.03125 -13.039062 14.253906 -13.289062 14.515625 -13.6875 C 14.773438 -14.09375 15.09375 -14.722656 15.46875 -15.578125 C 15.632812 -15.960938 15.828125 -16.53125 16.046875 -17.28125 C 16.273438 -18.03125 16.5 -18.863281 16.71875 -19.78125 C 16.945312 -20.707031 17.132812 -21.632812 17.28125 -22.5625 C 17.425781 -23.488281 17.5 -24.300781 17.5 -25 C 17.5 -26.03125 17.304688 -26.921875 16.921875 -27.671875 C 16.546875 -28.421875 15.914062 -28.875 15.03125 -29.03125 L 15.03125 -29.171875 L 23.578125 -29.171875 L 23.578125 -29.03125 C 23.085938 -28.90625 22.597656 -28.566406 22.109375 -28.015625 C 21.628906 -27.460938 21.164062 -26.785156 20.71875 -25.984375 C 20.269531 -25.191406 19.851562 -24.363281 19.46875 -23.5 C 19.09375 -22.632812 18.753906 -21.832031 18.453125 -21.09375 C 18.148438 -20.351562 17.910156 -19.78125 17.734375 -19.375 C 17.210938 -18.144531 16.664062 -16.859375 16.09375 -15.515625 C 15.519531 -14.171875 15.023438 -12.789062 14.609375 -11.375 C 14.203125 -9.957031 14 -8.507812 14 -7.03125 C 14 -6.019531 14.148438 -4.875 14.453125 -3.59375 C 14.753906 -2.320312 15.320312 -1.125 16.15625 0 L 8.984375 0 L 13.96875 -11.953125 C 13.695312 -11.628906 13.316406 -11.3125 12.828125 -11 C 12.347656 -10.6875 11.679688 -10.53125 10.828125 -10.53125 C 10.179688 -10.53125 9.59375 -10.804688 9.0625 -11.359375 C 8.539062 -11.910156 8.113281 -12.546875 7.78125 -13.265625 C 7.144531 -14.742188 6.539062 -16.113281 5.96875 -17.375 C 5.394531 -18.644531 4.820312 -19.882812 4.25 -21.09375 C 3.6875 -22.3125 3.109375 -23.570312 2.515625 -24.875 C 1.929688 -26.1875 1.285156 -27.617188 0.578125 -29.171875 Z M 0.578125 -29.171875 "/></g></g></g><g fill="#efb810" fill-opacity="1"><g transform="translate(53.721315, 30.398106)"><g><path d="M 6.265625 0 L 2.046875 0 L 2.046875 -29.171875 L 16.828125 -29.171875 C 17.898438 -29.171875 18.78125 -28.914062 19.46875 -28.40625 C 20.164062 -27.90625 20.6875 -27.269531 21.03125 -26.5 C 21.382812 -25.726562 21.5625 -24.945312 21.5625 -24.15625 C 21.5625 -22.988281 21.328125 -21.988281 20.859375 -21.15625 C 20.390625 -20.332031 19.789062 -19.632812 19.0625 -19.0625 C 18.332031 -18.488281 17.550781 -18.007812 16.71875 -17.625 C 15.894531 -17.25 15.117188 -16.921875 14.390625 -16.640625 C 13.660156 -16.359375 13.0625 -16.09375 12.59375 -15.84375 C 12.132812 -15.601562 11.90625 -15.335938 11.90625 -15.046875 C 11.90625 -14.753906 12.0625 -14.273438 12.375 -13.609375 C 12.695312 -12.941406 13.132812 -12.148438 13.6875 -11.234375 C 14.25 -10.316406 14.867188 -9.359375 15.546875 -8.359375 C 16.222656 -7.359375 16.925781 -6.367188 17.65625 -5.390625 C 18.382812 -4.421875 19.082031 -3.539062 19.75 -2.75 C 20.425781 -1.96875 21.035156 -1.34375 21.578125 -0.875 C 22.128906 -0.40625 22.550781 -0.171875 22.84375 -0.171875 L 22.84375 0 L 18.03125 0 C 17.46875 0 17.035156 -0.046875 16.734375 -0.140625 C 16.429688 -0.242188 16.144531 -0.445312 15.875 -0.75 C 15.601562 -1.0625 15.210938 -1.550781 14.703125 -2.21875 C 14.210938 -2.863281 13.6875 -3.585938 13.125 -4.390625 C 12.5625 -5.191406 12.003906 -6.019531 11.453125 -6.875 C 10.910156 -7.738281 10.414062 -8.566406 9.96875 -9.359375 C 9.53125 -10.160156 9.175781 -10.882812 8.90625 -11.53125 C 8.644531 -12.1875 8.515625 -12.695312 8.515625 -13.0625 C 8.515625 -13.53125 8.726562 -13.945312 9.15625 -14.3125 C 9.582031 -14.6875 10.125 -15.054688 10.78125 -15.421875 C 11.445312 -15.796875 12.160156 -16.210938 12.921875 -16.671875 C 13.679688 -17.128906 14.390625 -17.671875 15.046875 -18.296875 C 15.710938 -18.929688 16.257812 -19.707031 16.6875 -20.625 C 17.113281 -21.539062 17.328125 -22.628906 17.328125 -23.890625 C 17.328125 -24.804688 17.164062 -25.628906 16.84375 -26.359375 C 16.519531 -27.085938 16.003906 -27.664062 15.296875 -28.09375 C 14.585938 -28.519531 13.660156 -28.734375 12.515625 -28.734375 L 6.265625 -28.734375 Z M 6.265625 0 "/></g></g></g><g clip-path="url(#d50e9348c2)"><g fill="#efb810" fill-opacity="1"><g transform="translate(79.215056, 30.398106)"><g><path d="M 12.6875 0.296875 C 10.375 0.296875 8.351562 -0.320312 6.625 -1.5625 C 4.894531 -2.8125 3.550781 -4.550781 2.59375 -6.78125 C 1.644531 -9.007812 1.171875 -11.613281 1.171875 -14.59375 C 1.171875 -17.5625 1.644531 -20.160156 2.59375 -22.390625 C 3.550781 -24.617188 4.894531 -26.351562 6.625 -27.59375 C 8.351562 -28.84375 10.375 -29.46875 12.6875 -29.46875 C 14.414062 -29.46875 15.984375 -29.109375 17.390625 -28.390625 C 18.804688 -27.679688 20.023438 -26.671875 21.046875 -25.359375 C 22.066406 -24.046875 22.847656 -22.476562 23.390625 -20.65625 C 23.941406 -18.84375 24.21875 -16.820312 24.21875 -14.59375 C 24.21875 -12.351562 23.941406 -10.320312 23.390625 -8.5 C 22.847656 -6.6875 22.066406 -5.125 21.046875 -3.8125 C 20.023438 -2.5 18.804688 -1.484375 17.390625 -0.765625 C 15.984375 -0.0546875 14.414062 0.296875 12.6875 0.296875 Z M 5.71875 -14.609375 C 5.71875 -11.710938 6.003906 -9.179688 6.578125 -7.015625 C 7.148438 -4.847656 7.960938 -3.160156 9.015625 -1.953125 C 10.066406 -0.742188 11.28125 -0.140625 12.65625 -0.140625 C 14.0625 -0.140625 15.285156 -0.742188 16.328125 -1.953125 C 17.378906 -3.160156 18.195312 -4.847656 18.78125 -7.015625 C 19.363281 -9.179688 19.65625 -11.710938 19.65625 -14.609375 C 19.65625 -17.515625 19.363281 -20.046875 18.78125 -22.203125 C 18.195312 -24.359375 17.378906 -26.039062 16.328125 -27.25 C 15.285156 -28.457031 14.0625 -29.0625 12.65625 -29.0625 C 11.28125 -29.0625 10.066406 -28.457031 9.015625 -27.25 C 7.960938 -26.039062 7.148438 -24.359375 6.578125 -22.203125 C 6.003906 -20.046875 5.71875 -17.515625 5.71875 -14.609375 Z M 5.71875 -14.609375 "/></g></g></g></g><g clip-path="url(#5f8bf4344d)"><g fill="#efb810" fill-opacity="1"><g transform="translate(107.246423, 30.398106)"><g><path d="M 10.15625 0.296875 C 8.832031 0.296875 7.546875 0.132812 6.296875 -0.1875 C 5.054688 -0.507812 3.929688 -0.925781 2.921875 -1.4375 C 1.921875 -1.957031 1.140625 -2.5 0.578125 -3.0625 L 2.328125 -7.125 C 3.378906 -6.476562 4.398438 -5.894531 5.390625 -5.375 C 6.390625 -4.863281 7.445312 -4.460938 8.5625 -4.171875 C 9.675781 -3.878906 10.925781 -3.734375 12.3125 -3.734375 C 12.945312 -3.734375 13.644531 -3.765625 14.40625 -3.828125 C 15.164062 -3.898438 15.929688 -4.023438 16.703125 -4.203125 C 17.472656 -4.378906 18.171875 -4.628906 18.796875 -4.953125 C 19.429688 -5.285156 19.9375 -5.703125 20.3125 -6.203125 C 20.695312 -6.710938 20.890625 -7.335938 20.890625 -8.078125 C 20.890625 -8.773438 20.679688 -9.347656 20.265625 -9.796875 C 19.859375 -10.242188 19.3125 -10.609375 18.625 -10.890625 C 17.9375 -11.171875 17.164062 -11.398438 16.3125 -11.578125 C 15.457031 -11.753906 14.570312 -11.90625 13.65625 -12.03125 C 12.738281 -12.15625 11.851562 -12.285156 11 -12.421875 C 8.550781 -12.847656 6.609375 -13.441406 5.171875 -14.203125 C 3.742188 -14.960938 2.722656 -15.921875 2.109375 -17.078125 C 1.503906 -18.234375 1.203125 -19.609375 1.203125 -21.203125 C 1.203125 -22.097656 1.382812 -23.023438 1.75 -23.984375 C 2.113281 -24.953125 2.71875 -25.847656 3.5625 -26.671875 C 4.414062 -27.503906 5.550781 -28.175781 6.96875 -28.6875 C 8.394531 -29.207031 10.15625 -29.46875 12.25 -29.46875 C 13.257812 -29.46875 14.320312 -29.398438 15.4375 -29.265625 C 16.5625 -29.140625 17.613281 -28.9375 18.59375 -28.65625 C 19.570312 -28.375 20.363281 -27.992188 20.96875 -27.515625 L 19.78125 -23.078125 C 19.21875 -23.484375 18.441406 -23.847656 17.453125 -24.171875 C 16.472656 -24.503906 15.375 -24.773438 14.15625 -24.984375 C 12.945312 -25.191406 11.71875 -25.296875 10.46875 -25.296875 C 9.40625 -25.296875 8.351562 -25.210938 7.3125 -25.046875 C 6.269531 -24.878906 5.320312 -24.617188 4.46875 -24.265625 C 3.625 -23.921875 2.945312 -23.460938 2.4375 -22.890625 C 1.9375 -22.328125 1.6875 -21.648438 1.6875 -20.859375 C 1.6875 -20.191406 1.875 -19.65625 2.25 -19.25 C 2.632812 -18.84375 3.140625 -18.53125 3.765625 -18.3125 C 4.398438 -18.101562 5.101562 -17.953125 5.875 -17.859375 C 6.644531 -17.773438 7.414062 -17.71875 8.1875 -17.6875 C 8.96875 -17.664062 9.691406 -17.632812 10.359375 -17.59375 C 12.554688 -17.4375 14.484375 -17.019531 16.140625 -16.34375 C 17.804688 -15.675781 19.101562 -14.722656 20.03125 -13.484375 C 20.96875 -12.253906 21.4375 -10.722656 21.4375 -8.890625 C 21.4375 -7.472656 21.125 -6.195312 20.5 -5.0625 C 19.882812 -3.925781 19.046875 -2.957031 17.984375 -2.15625 C 16.921875 -1.363281 15.710938 -0.753906 14.359375 -0.328125 C 13.015625 0.0859375 11.613281 0.296875 10.15625 0.296875 Z M 10.15625 0.296875 "/></g></g></g></g><g clip-path="url(#76e2615a14)"><g fill="#efb810" fill-opacity="1"><g transform="translate(131.923449, 30.398106)"><g><path d="M 13.453125 0.296875 C 11.429688 0.296875 9.648438 -0.113281 8.109375 -0.9375 C 6.578125 -1.769531 5.296875 -2.898438 4.265625 -4.328125 C 3.234375 -5.753906 2.457031 -7.378906 1.9375 -9.203125 C 1.425781 -11.035156 1.171875 -12.957031 1.171875 -14.96875 C 1.171875 -17.050781 1.46875 -18.96875 2.0625 -20.71875 C 2.664062 -22.476562 3.546875 -24.015625 4.703125 -25.328125 C 5.867188 -26.648438 7.269531 -27.671875 8.90625 -28.390625 C 10.550781 -29.109375 12.40625 -29.46875 14.46875 -29.46875 C 15.476562 -29.46875 16.453125 -29.320312 17.390625 -29.03125 C 18.335938 -28.738281 19.179688 -28.359375 19.921875 -27.890625 C 20.660156 -27.421875 21.207031 -26.914062 21.5625 -26.375 L 18.703125 -22.953125 C 17.554688 -24.316406 16.191406 -25.410156 14.609375 -26.234375 C 13.035156 -27.066406 11.421875 -27.484375 9.765625 -27.484375 C 8.441406 -27.484375 7.304688 -27.070312 6.359375 -26.25 C 5.421875 -25.4375 4.703125 -24.3125 4.203125 -22.875 C 3.710938 -21.445312 3.46875 -19.800781 3.46875 -17.9375 C 3.46875 -16.09375 3.6875 -14.332031 4.125 -12.65625 C 4.5625 -10.988281 5.21875 -9.503906 6.09375 -8.203125 C 6.96875 -6.910156 8.039062 -5.890625 9.3125 -5.140625 C 10.59375 -4.398438 12.054688 -4.03125 13.703125 -4.03125 C 14.929688 -4.03125 15.957031 -4.179688 16.78125 -4.484375 C 17.613281 -4.785156 18.265625 -5.125 18.734375 -5.5 C 19.210938 -5.875 19.550781 -6.210938 19.75 -6.515625 C 19.957031 -6.816406 20.0625 -6.96875 20.0625 -6.96875 L 22.40625 -3.234375 C 22.40625 -3.234375 22.222656 -3.050781 21.859375 -2.6875 C 21.503906 -2.332031 20.957031 -1.925781 20.21875 -1.46875 C 19.476562 -1.007812 18.539062 -0.597656 17.40625 -0.234375 C 16.28125 0.117188 14.960938 0.296875 13.453125 0.296875 Z M 13.453125 0.296875 "/></g></g></g></g><g fill="#efb810" fill-opacity="1"><g transform="translate(157.417189, 30.398106)"><g><path d="M 2.046875 0 L 2.046875 -29.171875 L 6.265625 -29.171875 L 6.265625 -14.59375 L 18.46875 -14.59375 L 18.46875 -29.171875 L 22.703125 -29.171875 L 22.703125 0 L 18.46875 0 L 18.46875 -14.125 L 6.265625 -14.125 L 6.265625 0 Z M 2.046875 0 "/></g></g></g></g></g><g transform="matrix(1, 0, 0, 1, 206, 216)"><g clip-path="url(#cf6d99d9f1)"><g clip-path="url(#179120c262)"><g fill="#efb810" fill-opacity="1"><g transform="translate(0.873253, 12.126608)"><g><path d="M 6.640625 0.1875 C 5.796875 0.1875 5.015625 0.0390625 4.296875 -0.25 C 3.578125 -0.539062 2.953125 -0.945312 2.421875 -1.46875 C 1.898438 -2 1.492188 -2.613281 1.203125 -3.3125 C 0.910156 -4.007812 0.765625 -4.773438 0.765625 -5.609375 C 0.765625 -6.429688 0.910156 -7.195312 1.203125 -7.90625 C 1.492188 -8.613281 1.898438 -9.226562 2.421875 -9.75 C 2.953125 -10.269531 3.578125 -10.675781 4.296875 -10.96875 C 5.015625 -11.269531 5.796875 -11.421875 6.640625 -11.421875 C 7.492188 -11.421875 8.273438 -11.269531 8.984375 -10.96875 C 9.703125 -10.675781 10.320312 -10.269531 10.84375 -9.75 C 11.375 -9.226562 11.785156 -8.613281 12.078125 -7.90625 C 12.367188 -7.207031 12.515625 -6.441406 12.515625 -5.609375 C 12.515625 -4.773438 12.367188 -4.003906 12.078125 -3.296875 C 11.785156 -2.597656 11.375 -1.988281 10.84375 -1.46875 C 10.320312 -0.945312 9.703125 -0.539062 8.984375 -0.25 C 8.273438 0.0390625 7.492188 0.1875 6.640625 0.1875 Z M 6.640625 -1.1875 C 7.492188 -1.1875 8.253906 -1.378906 8.921875 -1.765625 C 9.585938 -2.148438 10.113281 -2.675781 10.5 -3.34375 C 10.882812 -4.007812 11.078125 -4.765625 11.078125 -5.609375 C 11.078125 -6.453125 10.882812 -7.207031 10.5 -7.875 C 10.113281 -8.539062 9.585938 -9.066406 8.921875 -9.453125 C 8.253906 -9.835938 7.492188 -10.03125 6.640625 -10.03125 C 5.796875 -10.03125 5.035156 -9.832031 4.359375 -9.4375 C 3.691406 -9.050781 3.164062 -8.523438 2.78125 -7.859375 C 2.40625 -7.191406 2.21875 -6.441406 2.21875 -5.609375 C 2.21875 -4.765625 2.40625 -4.007812 2.78125 -3.34375 C 3.164062 -2.6875 3.691406 -2.160156 4.359375 -1.765625 C 5.035156 -1.378906 5.796875 -1.1875 6.640625 -1.1875 Z M 6.640625 -1.1875 "/></g></g></g></g><g clip-path="url(#cffe4724f0)"><g fill="#efb810" fill-opacity="1"><g transform="translate(18.351826, 12.126608)"><g><path d="M 7.84375 -9.890625 L 2.9375 -9.890625 L 2.9375 -6.1875 L 7.421875 -6.1875 L 7.421875 -4.875 L 2.9375 -4.875 L 2.9375 0 L 1.53125 0 L 1.53125 -11.21875 L 7.84375 -11.21875 Z M 7.84375 -9.890625 "/></g></g></g></g><g clip-path="url(#30030b9be4)"><g fill="#efb810" fill-opacity="1"><g transform="translate(30.929048, 12.126608)"><g><path d="M 7.84375 -9.890625 L 2.9375 -9.890625 L 2.9375 -6.1875 L 7.421875 -6.1875 L 7.421875 -4.875 L 2.9375 -4.875 L 2.9375 0 L 1.53125 0 L 1.53125 -11.21875 L 7.84375 -11.21875 Z M 7.84375 -9.890625 "/></g></g></g></g><g clip-path="url(#b1917fa4ea)"><g fill="#efb810" fill-opacity="1"><g transform="translate(43.50627, 12.126608)"><g><path d="M 1.53125 0 L 1.53125 -11.21875 L 2.9375 -11.21875 L 2.9375 0 Z M 1.53125 0 "/></g></g></g></g><g clip-path="url(#a5a2aff6fc)"><g fill="#efb810" fill-opacity="1"><g transform="translate(52.175206, 12.126608)"><g><path d="M 6.53125 0.171875 C 5.695312 0.171875 4.925781 0.03125 4.21875 -0.25 C 3.519531 -0.53125 2.910156 -0.929688 2.390625 -1.453125 C 1.878906 -1.972656 1.476562 -2.582031 1.1875 -3.28125 C 0.90625 -3.988281 0.765625 -4.765625 0.765625 -5.609375 C 0.765625 -6.453125 0.90625 -7.226562 1.1875 -7.9375 C 1.476562 -8.644531 1.878906 -9.253906 2.390625 -9.765625 C 2.910156 -10.285156 3.519531 -10.6875 4.21875 -10.96875 C 4.925781 -11.25 5.695312 -11.390625 6.53125 -11.390625 C 7.394531 -11.390625 8.1875 -11.226562 8.90625 -10.90625 C 9.625 -10.582031 10.238281 -10.125 10.75 -9.53125 C 11.257812 -8.9375 11.617188 -8.234375 11.828125 -7.421875 L 10.40625 -7.421875 C 10.101562 -8.234375 9.609375 -8.867188 8.921875 -9.328125 C 8.242188 -9.785156 7.445312 -10.015625 6.53125 -10.015625 C 5.695312 -10.015625 4.953125 -9.828125 4.296875 -9.453125 C 3.640625 -9.078125 3.128906 -8.554688 2.765625 -7.890625 C 2.398438 -7.222656 2.21875 -6.460938 2.21875 -5.609375 C 2.21875 -4.742188 2.398438 -3.976562 2.765625 -3.3125 C 3.128906 -2.65625 3.640625 -2.140625 4.296875 -1.765625 C 4.953125 -1.390625 5.695312 -1.203125 6.53125 -1.203125 C 7.46875 -1.203125 8.28125 -1.441406 8.96875 -1.921875 C 9.664062 -2.410156 10.160156 -3.085938 10.453125 -3.953125 L 11.890625 -3.953125 C 11.679688 -3.109375 11.316406 -2.375 10.796875 -1.75 C 10.285156 -1.132812 9.664062 -0.660156 8.9375 -0.328125 C 8.207031 0.00390625 7.40625 0.171875 6.53125 0.171875 Z M 6.53125 0.171875 "/></g></g></g></g><g clip-path="url(#e572f8b87a)"><g fill="#efb810" fill-opacity="1"><g transform="translate(68.804857, 12.126608)"><g><path d="M 1.53125 0 L 1.53125 -11.21875 L 2.9375 -11.21875 L 2.9375 0 Z M 1.53125 0 "/></g></g></g></g><g clip-path="url(#24c985ac32)"><g fill="#efb810" fill-opacity="1"><g transform="translate(77.473793, 12.126608)"><g><path d="M 9.375 0 L 8.25 -2.6875 L 2.875 -2.6875 L 1.765625 0 L 0.265625 0 L 4.859375 -11.21875 L 6.171875 -11.21875 L 10.90625 0 Z M 5.546875 -9.28125 L 3.40625 -3.96875 L 7.734375 -3.96875 Z M 5.546875 -9.28125 "/></g></g></g></g><g clip-path="url(#bbd912e98c)"><g fill="#efb810" fill-opacity="1"><g transform="translate(92.838054, 12.126608)"><g><path d="M 2.9375 -1.3125 L 7.875 -1.3125 L 7.875 0 L 1.53125 0 L 1.53125 -11.21875 L 2.9375 -11.21875 Z M 2.9375 -1.3125 "/></g></g></g></g></g></g></svg>